<svg xmlns="http://www.w3.org/2000/svg" xmlns:xlink="http://www.w3.org/1999/xlink" version="1.1" id="Layer_1" x="0" y="0" viewBox="0 0 500 100" enable-background="new 0 0 500 100" xml:space="preserve"><path fill="#F7F7F7" d="M450.6 5.9l13.7 28.4c0.1 0.2 0.3 0.3 0.5 0.4l30.6 4.6c0.5 0.1 0.8 0.8 0.4 1.1l-22.1 22.1c-0.2 0.2-0.2 0.4-0.2 0.6l5.2 31.2c0.1 0.6-0.5 1-1 0.7l-27.3-14.7c-0.2-0.1-0.4-0.1-0.6 0l-27.3 14.7c-0.5 0.3-1-0.2-1-0.7l5.2-31.2c0-0.2 0-0.4-0.2-0.6l-22.1-22.1c-0.4-0.4-0.2-1.1 0.4-1.1l30.6-4.6c0.2 0 0.4-0.2 0.5-0.4l13.7-28.4C449.7 5.4 450.4 5.4 450.6 5.9z"/><linearGradient id="SVGID_1_" gradientUnits="userSpaceOnUse" x1="49.9" y1="15" x2="49.9" y2="79.4"><stop offset="0.3" stop-color="#FFCB02"/><stop offset="1" stop-color="#CC9000"/></linearGradient><path fill="url(#SVGID_1_)" stroke="#BE8203" stroke-width="2.9" stroke-miterlimit="10" d="M50.5 5.9l13.7 28.4c0.1 0.2 0.3 0.3 0.5 0.4l30.6 4.6c0.5 0.1 0.8 0.8 0.4 1.1L73.4 62.4c-0.2 0.2-0.2 0.4-0.2 0.6l5.2 31.2c0.1 0.6-0.5 1-1 0.7L50.2 80.2c-0.2-0.1-0.4-0.1-0.6 0L22.2 94.9c-0.5 0.3-1-0.2-1-0.7L26.5 63c0-0.2 0-0.4-0.2-0.6L4.2 40.3c-0.4-0.4-0.2-1.1 0.4-1.1l30.6-4.6c0.2 0 0.4-0.2 0.5-0.4L49.3 5.9C49.5 5.4 50.2 5.4 50.5 5.9z"/><linearGradient id="SVGID_2_" gradientUnits="userSpaceOnUse" x1="149.9" y1="15" x2="149.9" y2="79.4"><stop offset="0.3" stop-color="#FFCB02"/><stop offset="1" stop-color="#CC9000"/></linearGradient><path fill="url(#SVGID_2_)" stroke="#BE8203" stroke-width="2.9" stroke-miterlimit="10" d="M150.5 5.9l13.7 28.4c0.1 0.2 0.3 0.3 0.5 0.4l30.6 4.6c0.5 0.1 0.8 0.8 0.4 1.1l-22.1 22.1c-0.2 0.2-0.2 0.4-0.2 0.6l5.2 31.2c0.1 0.6-0.5 1-1 0.7l-27.3-14.7c-0.2-0.1-0.4-0.1-0.6 0l-27.3 14.7c-0.5 0.3-1-0.2-1-0.7l5.2-31.2c0-0.2 0-0.4-0.2-0.6l-22.1-22.1c-0.4-0.4-0.2-1.1 0.4-1.1l30.6-4.6c0.2 0 0.4-0.2 0.5-0.4l13.7-28.4C149.5 5.4 150.2 5.4 150.5 5.9z"/><linearGradient id="SVGID_3_" gradientUnits="userSpaceOnUse" x1="249.9" y1="15" x2="249.9" y2="79.4"><stop offset="0.3" stop-color="#FFCB02"/><stop offset="1" stop-color="#CC9000"/></linearGradient><path fill="url(#SVGID_3_)" stroke="#BE8203" stroke-width="2.9" stroke-miterlimit="10" d="M250.5 5.9l13.7 28.4c0.1 0.2 0.3 0.3 0.5 0.4l30.6 4.6c0.5 0.1 0.8 0.8 0.4 1.1l-22.1 22.1c-0.2 0.2-0.2 0.4-0.2 0.6l5.2 31.2c0.1 0.6-0.5 1-1 0.7l-27.3-14.7c-0.2-0.1-0.4-0.1-0.6 0l-27.3 14.7c-0.5 0.3-1-0.2-1-0.7l5.2-31.2c0-0.2 0-0.4-0.2-0.6l-22.1-22.1c-0.4-0.4-0.2-1.1 0.4-1.1l30.6-4.6c0.2 0 0.4-0.2 0.5-0.4l13.7-28.4C249.5 5.4 250.2 5.4 250.5 5.9z"/><linearGradient id="SVGID_4_" gradientUnits="userSpaceOnUse" x1="349.9" y1="15" x2="349.9" y2="79.4"><stop offset="0.3" stop-color="#FFCB02"/><stop offset="1" stop-color="#CC9000"/></linearGradient><path fill="url(#SVGID_4_)" stroke="#BE8203" stroke-width="2.9" stroke-miterlimit="10" d="M350.5 5.9l13.7 28.4c0.1 0.2 0.3 0.3 0.5 0.4l30.6 4.6c0.5 0.1 0.8 0.8 0.4 1.1l-22.1 22.1c-0.2 0.2-0.2 0.4-0.2 0.6l5.2 31.2c0.1 0.6-0.5 1-1 0.7l-27.3-14.7c-0.2-0.1-0.4-0.1-0.6 0l-27.3 14.7c-0.5 0.3-1-0.2-1-0.7l5.2-31.2c0-0.2 0-0.4-0.2-0.6l-22.1-22.1c-0.4-0.4-0.2-1.1 0.4-1.1l30.6-4.6c0.2 0 0.4-0.2 0.5-0.4l13.7-28.4C349.5 5.4 350.2 5.4 350.5 5.9z"/><linearGradient id="SVGID_5_" gradientUnits="userSpaceOnUse" x1="427.1" y1="14.6" x2="427.1" y2="79.2"><stop offset="0.3" stop-color="#FFCB02"/><stop offset="1" stop-color="#CC9000"/></linearGradient><path fill="url(#SVGID_5_)" d="M422.1 94.8l27.5-14.8c0.1-0.1 0.3-0.1 0.4-0.1V5.2h0c-0.2 0-0.3 0.1-0.4 0.2L435.9 34c-0.1 0.3-0.4 0.5-0.7 0.5l-30.8 4.6c-0.2 0-0.3 0.1-0.3 0.3 0 0.2 0 0.3 0.1 0.4l22.3 22.3c0.2 0.2 0.3 0.5 0.3 0.8l-5.3 31.4c0 0.2 0 0.3 0.2 0.4C421.8 94.8 421.9 94.8 422.1 94.8z"/><path fill="none" stroke="#BE8203" stroke-width="2.5" stroke-miterlimit="10" d="M421.9 95c-0.2 0-0.4-0.1-0.5-0.2 -0.3-0.2-0.4-0.6-0.4-0.9l5.2-31.2c0-0.1 0-0.3-0.1-0.4L404 40.3c-0.2-0.3-0.3-0.6-0.2-1 0.1-0.3 0.4-0.6 0.7-0.6l30.6-4.6c0.1 0 0.2-0.1 0.3-0.2l13.7-28.4c0.2-0.3 0.5-0.5 0.8-0.5h0c0.3 0 0.7 0.2 0.8 0.5l13.7 28.4c0.1 0.1 0.2 0.2 0.3 0.2l30.6 4.6c0.3 0.1 0.6 0.3 0.7 0.6 0.1 0.3 0 0.7-0.2 1l-22.1 22.1c-0.1 0.1-0.1 0.2-0.1 0.4l5.2 31.2c0.1 0.4-0.1 0.7-0.4 0.9 -0.3 0.2-0.6 0.2-1 0.1l-27.3-14.7c-0.1-0.1-0.3-0.1-0.4 0l-27.3 14.7C422.2 95 422.1 95 421.9 95z"/></svg>